<?xml version="1.0" encoding="UTF-8"?>
<svg width="25px" height="25px" viewBox="0 0 25 25" version="1.1" xmlns="http://www.w3.org/2000/svg" xmlns:xlink="http://www.w3.org/1999/xlink">
    <!-- Generator: Sketch 60.1 (88133) - https://sketch.com -->
    <title>Instagram_Glyph_BC</title>
    <desc>Created with Sketch.</desc>
    <g id="Page-1" stroke="none" stroke-width="1" fill="none" fill-rule="evenodd">
        <g id="Instagram_Glyph_BC" fill="#1A1A1A" fill-rule="nonzero">
            <path d="M7.31518482,0.0874125874 C5.98651349,0.14985015 5.07992008,0.362137862 4.28571429,0.674325674 C3.46403596,0.994005994 2.76973027,1.42357642 2.07792208,2.11788212 C1.38611389,2.81218781 0.959040959,3.50899101 0.641858142,4.33066933 C0.334665335,5.12487512 0.124875125,6.03396603 0.0674325674,7.36263736 C0.00999000999,8.69130869 -0.004995005,9.12087912 0.0024975025,12.5124875 C0.00999000999,15.9040959 0.024975025,16.3286713 0.0874125874,17.6598402 C0.14985015,18.9885115 0.362137862,19.8951049 0.674325674,20.6893107 C0.994005994,21.510989 1.42357642,22.2052947 2.11788212,22.8996004 C2.81218781,23.5939061 3.50899101,24.0184815 4.33316683,24.3356643 C5.12737263,24.6428571 6.03646354,24.8526474 7.36513487,24.9100899 C8.69380619,24.9675325 9.12337662,24.9825175 12.5124875,24.975025 C15.9015984,24.9675325 16.3286713,24.9525475 17.6623377,24.8901099 C18.996004,24.8276723 19.8976024,24.6153846 20.6893107,24.3031968 C21.510989,23.981019 22.2052947,23.5539461 22.8996004,22.8596404 C23.5939061,22.1653347 24.0184815,21.4685315 24.3356643,20.6443556 C24.6428571,19.8501499 24.8526474,18.9410589 24.9100899,17.6148851 C24.9675325,16.2812188 24.9825175,15.8566434 24.975025,12.465035 C24.9675325,9.07342657 24.9525475,8.64885115 24.8901099,7.31768232 C24.8276723,5.98651349 24.6153846,5.08241758 24.3031968,4.28821179 C23.9835165,3.46653347 23.5539461,2.77222777 22.8596404,2.08041958 C22.1653347,1.38861139 21.4685315,0.961538462 20.6443556,0.644355644 C19.8501499,0.334665335 18.9410589,0.124875125 17.6123876,0.0674325674 C16.2837163,0.00999000999 15.8541459,-0.004995005 12.4625375,0.0024975025 C9.07092907,0.00999000999 8.64635365,0.0224775225 7.31518482,0.0874125874 M7.46253746,22.6623377 C6.24375624,22.6098901 5.58441558,22.4075924 5.14235764,22.2377622 C4.55794206,22.012987 4.14335664,21.7407592 3.7037962,21.3061938 C3.26423576,20.8716284 2.99450549,20.4545455 2.76723277,19.8726274 C2.5974026,19.4330669 2.39010989,18.7712288 2.33266733,17.5549451 C2.27022977,16.2387612 2.25774226,15.8441558 2.25024975,12.50999 C2.24275724,9.17582418 2.25524476,8.78121878 2.31268731,7.46503497 C2.36513487,6.24875125 2.56743257,5.58691309 2.73726274,5.14735265 C2.96203796,4.56293706 3.23176823,4.14835165 3.66883117,3.70879121 C4.10589411,3.26923077 4.52047952,2.9995005 5.1023976,2.77222777 C5.54195804,2.5999001 6.2037962,2.3951049 7.42007992,2.33766234 C8.73626374,2.27522478 9.13086913,2.26273726 12.465035,2.25524476 C15.7992008,2.24775225 16.1938062,2.26023976 17.5124875,2.31768232 C18.7287712,2.37012987 19.3906094,2.57242757 19.8301698,2.74225774 C20.4145854,2.96703297 20.8291708,3.23676324 21.2687313,3.67382617 C21.7082917,4.11088911 21.978022,4.52547453 22.2052947,5.10739261 C22.3776224,5.54695305 22.5824176,6.20629371 22.6398601,7.42507493 C22.7022977,8.74125874 22.7172827,9.13586414 22.7222777,12.47003 C22.7272727,15.8041958 22.7172827,16.1988012 22.6598402,17.514985 C22.6073926,18.7337662 22.4050949,19.3931069 22.2352647,19.8351648 C22.0104895,20.4170829 21.7407592,20.8341658 21.3036963,21.2737263 C20.8666334,21.7132867 20.452048,21.983017 19.8701299,22.2102897 C19.4305694,22.3826174 18.7687313,22.5874126 17.5524476,22.6448551 C16.2362637,22.7072927 15.8416583,22.7197802 12.5074925,22.7272727 C9.17332667,22.7347652 8.77872128,22.7197802 7.46253746,22.6623377 M17.6423507,5.81418581 C17.6448551,6.64085914 18.3166833,7.31268731 19.1433566,7.31019675 C19.97003,7.30769231 20.6418581,6.63586414 20.6393676,5.80919081 C20.6368631,4.98251748 19.965035,4.31068931 19.1383616,4.31317987 C19.1383616,4.31317987 19.1383616,4.31317987 19.1383616,4.31317987 C18.3091908,4.31317987 17.6398601,4.98501499 17.6423507,5.81418581 M6.07640891,12.5 C6.08391608,16.0414585 8.95854146,18.9060939 12.5,18.8986161 C16.0414585,18.8911089 18.9060939,16.0164835 18.9011054,12.475025 C18.8961039,8.93356643 16.0164835,6.06893107 12.475025,6.07640891 C8.93356643,6.08391608 6.06893107,8.95854146 6.07640891,12.5 M8.32416579,12.495005 C8.31918082,10.1973027 10.1798202,8.32917083 12.4775225,8.32416579 C14.7752248,8.31918082 16.6433566,10.1798202 16.6483617,12.4775225 C16.6533467,14.7752248 14.7927073,16.6433566 12.495005,16.6483742 C10.1973027,16.6558442 8.32917083,14.7952048 8.32416579,12.495005 C8.32416579,12.495005 8.32416579,12.495005 8.32416579,12.495005" id="Shape"></path>
        </g>
    </g>
</svg>