<?xml version="1.0" encoding="UTF-8"?>
<svg width="25px" height="25px" viewBox="0 0 25 25" version="1.1" xmlns="http://www.w3.org/2000/svg" xmlns:xlink="http://www.w3.org/1999/xlink">
    <!-- Generator: Sketch 60.1 (88133) - https://sketch.com -->
    <title>Artboard</title>
    <desc>Created with Sketch.</desc>
    <g id="Artboard" stroke="none" stroke-width="1" fill="none" fill-rule="evenodd">
        <rect fill="#FFFFFF" opacity="0" x="0" y="0" width="25" height="25"></rect>
        <g id="Twitter_BC" transform="translate(0.000000, 2.000000)" fill="#1A1A1A" fill-rule="nonzero">
            <path d="M22.4441341,4.96565392 C22.4581006,5.18593738 22.4581006,5.40622083 22.4581006,5.61273658 C22.4581006,12.2900789 17.3044693,20 7.86312849,20 L7.86312849,20 C5.0698324,20 2.34636872,19.2152402 0,17.7283268 C0.405027933,17.76963 0.810055866,17.7971654 1.2150838,17.7971654 C3.51955307,17.7971654 5.76815642,17.039941 7.58379888,15.6218663 C5.39106145,15.5805631 3.46368715,14.176256 2.79329609,12.1110986 C3.56145251,12.2625435 4.3575419,12.2212404 5.11173184,12.0284923 C2.72346369,11.5466223 1.00558659,9.48146483 0.991620112,7.07211449 L0.991620112,7.03081135 C1.70391061,7.4163074 2.5,7.63659086 3.32402235,7.66412629 C1.07541899,6.17721294 0.377094972,3.21715396 1.73184358,0.917945355 C4.32960894,4.07075236 8.18435754,5.99823263 12.3044693,6.20474837 C11.6620112,3.47874057 13.3798883,0.766500477 16.1452514,0.133185532 C17.9329609,-0.279845954 19.7905028,0.28463041 21.047486,1.59256345 C22.1927374,1.37227999 23.2960894,0.959248504 24.301676,0.367236707 C23.924581,1.53749258 23.1145251,2.52876815 22.0530726,3.16208309 C23.0726257,3.03817365 24.0642458,2.77658704 25,2.36355556 C24.3156425,3.36859884 23.4497207,4.24973267 22.4441341,4.96565392" id="Path_176"></path>
        </g>
    </g>
</svg>