<?xml version="1.0" encoding="UTF-8"?>
<svg width="59px" height="33px" viewBox="0 0 59 33" version="1.1" xmlns="http://www.w3.org/2000/svg" xmlns:xlink="http://www.w3.org/1999/xlink">
    <!-- Generator: Sketch 60.1 (88133) - https://sketch.com -->
    <title>LBWF Black</title>
    <desc>Created with Sketch.</desc>
    <g id="Page-1" stroke="none" stroke-width="1" fill="none" fill-rule="evenodd">
        <g id="LBWF-Black" fill-rule="nonzero">
            <g id="Group" transform="translate(0.284483, 13.939655)" fill="#000000">
                <path d="M20.1925862,16.482931 C20.1925862,15.7432759 19.8938793,15.3734483 19.2936207,15.3734483 C18.9949138,15.3734483 18.662069,15.4843966 18.3007759,15.7062931 L18.3007759,14.0136207 L16.8584483,14.0136207 L16.8584483,14.7390517 L17.2993966,14.7390517 L17.2993966,17.9906897 L16.8584483,17.9906897 L16.8584483,18.7331897 L18.8156897,18.7331897 L18.8156897,17.9906897 L18.315,17.9906897 L18.315,16.3975862 C18.4771552,16.2525 18.645,16.1813793 18.8242241,16.1813793 C19.0631897,16.1813793 19.1826724,16.3662931 19.1826724,16.7389655 L19.1826724,18.7303448 L20.6648276,18.7303448 L20.6648276,17.9878448 L20.1897414,17.9878448 L20.1897414,16.482931 L20.1925862,16.482931 Z" id="Path"></path>
                <polygon id="Path" points="4.73094828 14.7475862 5.12353448 14.7475862 4.43793103 17.2567241 3.75517241 14.7475862 4.14775862 14.7475862 4.14775862 14.0164655 2.49775862 14.0164655 2.49775862 14.7475862 2.89034483 14.7475862 2.20474138 17.2567241 1.53905172 14.7475862 1.94017241 14.7475862 1.94017241 14.0164655 0.00568965517 14.0164655 0.00568965517 14.7475862 0.438103448 14.7475862 1.69836207 18.7331897 2.60586207 18.7331897 3.27155172 16.3150862 3.94008621 18.7331897 4.84758621 18.7331897 6.11353448 14.7475862 6.51465517 14.7475862 6.51465517 14.0164655 4.73094828 14.0164655"></polygon>
                <path d="M10.047931,16.6308621 C10.047931,16.2240517 9.98818966,15.9481034 9.87155172,15.7973276 C9.65534483,15.4587931 9.19732759,15.2881034 8.4975,15.2881034 C7.69241379,15.2881034 7.22301724,15.5498276 7.08931034,16.070431 L7.84034483,16.2297414 C7.96836207,16.0306034 8.17318966,15.9310345 8.45767241,15.9310345 C8.84172414,15.9310345 9.03232759,16.1443966 9.03232759,16.5739655 L9.03232759,16.7816379 C8.73362069,16.647931 8.45482759,16.5825 8.1987931,16.5825 C7.40508621,16.5825 7.00681034,16.977931 7.00681034,17.7659483 C7.00681034,18.4657759 7.36525862,18.8156897 8.08215517,18.8156897 C8.45482759,18.8156897 8.77060345,18.710431 9.03232759,18.4999138 L9.03232759,18.7331897 L10.5087931,18.7331897 L10.5087931,17.9906897 L10.0507759,17.9906897 L10.0507759,16.6308621 L10.047931,16.6308621 Z M9.03232759,17.8399138 C8.80474138,18.0447414 8.59422414,18.1471552 8.39793103,18.1471552 C8.1362069,18.1471552 8.00534483,17.9935345 8.00534483,17.6891379 C8.00534483,17.390431 8.16465517,17.2396552 8.48043103,17.2396552 C8.68525862,17.2396552 8.87017241,17.307931 9.02948276,17.4473276 L9.02948276,17.8399138 L9.03232759,17.8399138 Z" id="Shape"></path>
                <polygon id="Path" points="12.8557759 14.0164655 11.4162931 14.0164655 11.4162931 14.7390517 11.8572414 14.7390517 11.8572414 17.9906897 11.4162931 17.9906897 11.4162931 18.7331897 13.3308621 18.7331897 13.3308621 17.9906897 12.8557759 17.9906897"></polygon>
                <path d="M15.4161207,14.1416379 L14.4090517,15.0007759 L14.4090517,15.3762931 L14.025,15.3762931 L14.025,16.1017241 L14.4090517,16.1017241 L14.4090517,17.8768966 C14.4090517,18.5056034 14.7077586,18.8185345 15.3080172,18.8185345 C15.5925,18.8185345 15.8343103,18.7616379 16.0334483,18.6506897 L16.0334483,17.8996552 C15.905431,17.9593966 15.7944828,17.9906897 15.7006034,17.9906897 C15.5128448,17.9906897 15.4161207,17.837069 15.4161207,17.5326724 L15.4161207,16.0988793 L16.0334483,16.0988793 L16.0334483,15.3734483 L15.4161207,15.3734483 L15.4161207,14.1416379 Z" id="Path"></path>
                <path d="M32.109569,16.4857759 C32.109569,15.7461207 31.7027586,15.3762931 30.8919828,15.3762931 C30.525,15.3762931 30.1068103,15.5043103 29.634569,15.7603448 C29.4781034,15.5043103 29.222069,15.3762931 28.8664655,15.3762931 C28.3942241,15.3762931 27.9333621,15.5071552 27.4838793,15.7688793 L27.4838793,15.3762931 L26.0415517,15.3762931 L26.0415517,16.1102586 L26.4910345,16.1102586 L26.4910345,17.9935345 L26.0415517,17.9935345 L26.0415517,18.7360345 L28.0073276,18.7360345 L28.0073276,17.9935345 L27.4981034,17.9935345 L27.4981034,16.4601724 C27.7143103,16.2781034 28.0272414,16.1842241 28.4312069,16.1842241 C28.6701724,16.1842241 28.7896552,16.3691379 28.7896552,16.7418103 L28.7896552,18.7331897 L30.2803448,18.7331897 L30.2803448,17.9906897 L29.7967241,17.9906897 L29.7967241,16.3975862 C29.9844828,16.2525 30.2831897,16.1813793 30.6871552,16.1813793 C30.9488793,16.1813793 31.0797414,16.3662931 31.0797414,16.7389655 L31.0797414,18.7303448 L32.5789655,18.7303448 L32.5789655,17.9878448 L32.1038793,17.9878448 L32.1038793,16.4857759 L32.109569,16.4857759 Z" id="Path"></path>
                <path d="M24.6675,16.6365517 C24.6675,16.235431 24.6134483,15.9594828 24.5081897,15.8030172 C24.2749138,15.4644828 23.8140517,15.2937931 23.1256034,15.2937931 C22.3091379,15.2937931 21.8425862,15.5555172 21.7259483,16.0761207 L22.4513793,16.235431 C22.6021552,16.0362931 22.8155172,15.9367241 23.0943103,15.9367241 C23.4726724,15.9367241 23.660431,16.1500862 23.660431,16.5796552 L23.660431,16.7844828 C23.3617241,16.6507759 23.0857759,16.5853448 22.835431,16.5853448 C22.0360345,16.5853448 21.6349138,16.9807759 21.6349138,17.7687931 C21.6349138,18.4686207 21.9905172,18.8185345 22.7017241,18.8185345 C23.0857759,18.8185345 23.4043966,18.7132759 23.660431,18.5027586 L23.660431,18.7360345 L25.1425862,18.7360345 L25.1425862,17.9935345 L24.6675,17.9935345 L24.6675,16.6365517 L24.6675,16.6365517 Z M23.6575862,17.8427586 C23.4356897,18.0475862 23.2251724,18.15 23.0231897,18.15 C22.7614655,18.15 22.6306034,17.9963793 22.6306034,17.6919828 C22.6306034,17.3932759 22.7927586,17.2425 23.1142241,17.2425 C23.3133621,17.2425 23.495431,17.3107759 23.6547414,17.4501724 L23.6547414,17.8427586 L23.6575862,17.8427586 Z" id="Shape"></path>
                <path d="M33.5433621,5.28 C33.5433621,5.54172414 33.6713793,5.67258621 33.9274138,5.67258621 L37.8106034,5.67258621 C38.0211207,5.67258621 38.1263793,5.56732759 38.1263793,5.35681034 C38.1263793,5.26862069 38.0865517,5.18327586 38.0097414,5.10646552 L35.3356034,2.43801724 C35.1535345,2.25594828 34.9686207,2.25594828 34.7865517,2.43801724 C34.7097414,2.51482759 34.6699138,2.60586207 34.6699138,2.70543103 C34.6699138,2.81068966 34.7097414,2.90172414 34.7865517,2.98137931 L36.695431,4.89025862 L33.9274138,4.89025862 C33.6713793,4.88741379 33.5433621,5.01827586 33.5433621,5.28 Z" id="Path"></path>
                <path d="M39.0680172,4.49482759 C39.1249138,4.43508621 39.1505172,4.34689655 39.1505172,4.23594828 L39.1505172,0.452327586 C39.1505172,0.201982759 39.0225,0.0768103448 38.7664655,0.0768103448 C38.5047414,0.0768103448 38.3738793,0.201982759 38.3738793,0.452327586 L38.3738793,3.15206897 L36.4166379,1.20051724 C36.234569,1.01844828 36.0496552,1.01844828 35.8675862,1.20051724 C35.6855172,1.38258621 35.6855172,1.5675 35.8675862,1.74956897 L38.6185345,4.49198276 C38.775,4.6512931 38.9257759,4.6512931 39.0680172,4.49482759 Z" id="Path"></path>
                <path d="M43.2356897,1.75241379 C43.4177586,1.57034483 43.4177586,1.38543103 43.2356897,1.20336207 C43.0536207,1.0212931 42.8687069,1.0212931 42.6866379,1.20336207 L40.7293966,3.15491379 L40.7293966,0.455172414 C40.7293966,0.204827586 40.6013793,0.0796551724 40.3453448,0.0796551724 C40.0836207,0.0796551724 39.9527586,0.204827586 39.9527586,0.455172414 L39.9527586,4.2387931 C39.9527586,4.35543103 39.9812069,4.44077586 40.0352586,4.49767241 C40.1803448,4.65413793 40.3311207,4.65413793 40.4847414,4.49767241 L43.2356897,1.75241379 Z" id="Path"></path>
                <polygon id="Path" points="36.200431 14.7390517 36.7096552 14.7390517 36.7096552 17.9565517 36.200431 17.9565517 36.200431 18.7218103 38.4848276 18.7218103 38.4848276 17.9565517 37.8532759 17.9565517 37.8532759 16.6735345 38.8518103 16.6735345 38.8518103 15.905431 37.8532759 15.905431 37.8532759 14.7390517 39.1761207 14.7390517 39.1761207 15.4730172 40.0267241 15.4730172 40.0267241 14.0050862 36.200431 14.0050862"></polygon>
                <path d="M46.2625862,16.1557759 L46.2625862,15.3649138 L44.9112931,15.3649138 L44.9112931,16.0903448 L45.3607759,16.0903448 L45.3607759,17.9821552 L44.9112931,17.9821552 L44.9112931,18.7246552 L46.8856034,18.7246552 L46.8856034,17.9821552 L46.3507759,17.9821552 L46.3507759,17.3818966 C46.3507759,16.6877586 46.7376724,16.3378448 47.5086207,16.3321552 L47.5086207,15.2823933 C46.8827586,15.279569 46.4674138,15.5725862 46.2625862,16.1557759 Z" id="Path"></path>
                <path d="M50.0035345,15.279569 C48.8371552,15.279569 48.2539655,15.8656034 48.2539655,17.0376724 C48.2539655,18.215431 48.8371552,18.8043103 50.0035345,18.8043103 C50.82,18.8043103 51.3662069,18.497069 51.6364655,17.8797414 L50.8541379,17.6208621 C50.6806034,17.919569 50.4302586,18.0703448 50.094569,18.0703448 C49.599569,18.0703448 49.335,17.7887069 49.3037069,17.2282759 L51.7218103,17.2282759 C51.7218103,15.9310345 51.1471552,15.279569 50.0035345,15.279569 Z M49.3207759,16.6564655 C49.3378448,16.235431 49.5568966,16.022069 49.977931,16.022069 C50.3932759,16.022069 50.6180172,16.2325862 50.6436207,16.6564655 L49.3207759,16.6564655 Z" id="Shape"></path>
                <path d="M44.319569,2.43801724 C44.2427586,2.3612069 44.1488793,2.32137931 44.0436207,2.32137931 C43.9383621,2.32137931 43.8473276,2.3612069 43.7676724,2.43801724 L41.0992241,5.10646552 C41.0167241,5.18896552 40.9740517,5.27431034 40.9740517,5.35681034 C40.9740517,5.56732759 41.0793103,5.67258621 41.2898276,5.67258621 L45.1730172,5.67258621 C45.4347414,5.67258621 45.5656034,5.54172414 45.5656034,5.28 C45.5656034,5.01827586 45.4347414,4.88741379 45.1730172,4.88741379 L42.4135345,4.88741379 L44.3138793,2.97853448 C44.4959483,2.79646552 44.4959483,2.61439655 44.319569,2.43801724 Z" id="Path"></path>
                <path d="M42.1688793,15.279569 C40.9911207,15.279569 40.4022414,15.8656034 40.4022414,17.0376724 C40.4022414,18.215431 40.9911207,18.8043103 42.1688793,18.8043103 C43.3580172,18.8043103 43.9525862,18.215431 43.9525862,17.0376724 C43.9525862,15.8656034 43.3580172,15.279569 42.1688793,15.279569 Z M42.1688793,17.9878448 C41.6738793,17.9878448 41.4263793,17.672069 41.4263793,17.0376724 C41.4263793,16.4146552 41.6738793,16.104569 42.1688793,16.104569 C42.6752586,16.104569 42.9284483,16.4146552 42.9284483,17.0376724 C42.9284483,17.672069 42.6752586,17.9878448 42.1688793,17.9878448 Z" id="Shape"></path>
                <path d="M54.5780172,16.6308621 L54.0289655,16.5227586 C53.7018103,16.4573276 53.5368103,16.3577586 53.5368103,16.2297414 C53.5368103,16.0562069 53.6648276,15.9708621 53.9208621,15.9708621 C54.2480172,15.9708621 54.4869828,16.0960345 54.6377586,16.3463793 L55.3887931,16.3463793 L55.3887931,15.3706034 L54.6377586,15.3706034 L54.6377586,15.5213793 C54.3418966,15.3649138 54.0602586,15.2881034 53.7871552,15.2881034 C53.0105172,15.2881034 52.6207759,15.6408621 52.6207759,16.3463793 C52.6207759,16.847069 52.8967241,17.16 53.4457759,17.2880172 L54.0118966,17.4217241 C54.4386207,17.5212931 54.6548276,17.6407759 54.6548276,17.7801724 C54.6548276,17.9963793 54.4983621,18.1044828 54.1882759,18.1044828 C53.7217241,18.1044828 53.4884483,17.919569 53.4884483,17.5468966 L52.7146552,17.5468966 L52.7146552,18.7303448 L53.4884483,18.7303448 L53.4884483,18.5966379 C53.7843103,18.7417241 54.0744828,18.8128448 54.3646552,18.8128448 C55.1697414,18.8128448 55.5737069,18.4344828 55.5737069,17.6806034 C55.5708621,17.1087931 55.2408621,16.7588793 54.5780172,16.6308621 Z" id="Path"></path>
                <path d="M58.3872414,16.0988793 L58.3872414,15.3734483 L57.7784483,15.3734483 L57.7784483,14.1387931 L56.7543103,14.997931 L56.7543103,15.3734483 L56.3702586,15.3734483 L56.3702586,16.0988793 L56.7543103,16.0988793 L56.7543103,17.8740517 C56.7543103,18.5027586 57.0530172,18.8156897 57.6532759,18.8156897 C57.9377586,18.8156897 58.1824138,18.7587931 58.3872414,18.6478448 L58.3872414,17.8968103 C58.2649138,17.9565517 58.1539655,17.9878448 58.0543966,17.9878448 C57.9775862,17.9878448 57.9178448,17.9736207 57.8780172,17.9451724 C57.8125862,17.8939655 57.7784483,17.7574138 57.7784483,17.5298276 L57.7784483,16.0960345 L58.3872414,16.0960345 L58.3872414,16.0988793 Z" id="Path"></path>
            </g>
            <path d="M0.0739655172,24.6618103 L0.0739655172,23.0687069 L36.695431,23.0715517 L36.695431,21.962069 L31.5434483,21.962069 C30.2775,21.6349138 29.3671552,21.2793103 28.8181034,20.8952586 C27.5521552,20.0076724 26.9177586,18.645 26.9177586,16.8100862 C26.9177586,14.7333621 27.4781897,13.3422414 28.6018966,12.6424138 C28.3060345,12.3152586 28.1609483,11.8060345 28.1609483,11.1175862 C28.1609483,9.85163793 28.6303448,8.50603448 29.5691379,7.08362069 C30.4425,5.76077586 31.1622414,5.10077586 31.7283621,5.10077586 C31.7994828,4.29568966 32.3343103,3.47068966 33.312931,2.62862069 L33.312931,2.62008621 C33.3698276,2.57172414 33.429569,2.52905172 33.4864655,2.48068966 C33.5206034,2.45224138 33.5547414,2.42663793 33.5888793,2.39818966 C34.2887069,1.82922414 35.0738793,1.33706897 35.952931,0.927413793 C36.9457759,0.466551724 37.7650862,0.23612069 38.4165517,0.23612069 C38.9712931,0.23612069 39.435,0.315775862 39.8076724,0.477931034 C40.0665517,0.369827586 40.3652586,0.301551724 40.6924138,0.267413793 L40.6924138,0.267413793 C40.7180172,0.267413793 40.737931,0.264568966 40.7606897,0.264568966 C40.8687931,0.256034483 40.9797414,0.250344828 41.0935345,0.2475 C41.1305172,0.244655172 41.1589655,0.244655172 41.1788793,0.244655172 C41.184569,0.244655172 41.1902586,0.244655172 41.1987931,0.244655172 L41.1987931,0.244655172 C41.2016379,0.244655172 41.2044828,0.244655172 41.2073276,0.244655172 C42.3253448,0.244655172 43.6681034,0.768103448 45.2412931,1.81215517 C46.9140517,2.93017241 47.7959483,4.02258621 47.8926724,5.09508621 C48.4644828,5.09508621 49.1842241,5.75508621 50.0518966,7.07793103 C50.9906897,8.50034483 51.4600862,9.84594828 51.4600862,11.1118966 C51.4600862,11.8003448 51.3121552,12.309569 51.0191379,12.6367241 C52.1456897,13.3422414 52.7118103,14.7305172 52.7118103,16.8043966 C52.7118103,18.6393103 52.0774138,19.9991379 50.8114655,20.889569 C50.2624138,21.2736207 49.3492241,21.6292241 48.0775862,21.9563793 L42.9256034,21.9563793 L42.9256034,23.0658621 L58.5949138,23.0658621 L58.5949138,24.6589655 L41.3438793,24.6589655 L41.3438793,23.0658621 L41.3438793,21.1143103 C41.3438793,20.6193103 41.5999138,20.3718103 42.1119828,20.3718103 L47.7049138,20.3718103 C48.7262069,20.1100862 49.3975862,19.8796552 49.7133621,19.6805172 C50.6635345,19.0859483 51.1386207,18.1272414 51.1386207,16.8043966 C51.1386207,15.3933621 50.6948276,14.3151724 49.8043966,13.5698276 C49.4601724,13.2796552 49.2866379,13.0065517 49.2866379,12.7448276 C49.2866379,12.522931 49.3862069,12.2896552 49.5853448,12.045 C49.7844828,11.8003448 49.8840517,11.4902586 49.8840517,11.1118966 C49.8840517,10.4405172 49.647931,9.64112069 49.1756897,8.71939655 C48.7489655,7.89155172 48.2966379,7.26284483 47.8243966,6.83612069 C47.6622414,6.69103448 47.4972414,6.61991379 47.3237069,6.61991379 C47.2639655,6.61991379 47.1786207,6.6312931 47.0705172,6.65405172 C46.9624138,6.67681034 46.8799138,6.68818966 46.8258621,6.68818966 C46.6580172,6.68818966 46.5015517,6.60568966 46.3536207,6.44353448 C46.2056897,6.27853448 46.1317241,6.10784483 46.1317241,5.93146552 C46.1317241,5.83189655 46.1601724,5.69818966 46.2199138,5.53034483 C46.2796552,5.3625 46.3081034,5.24017241 46.3081034,5.16336207 C46.3081034,5.07517241 46.2796552,4.98982759 46.2256034,4.91301724 C45.6025862,4.00836207 44.7519828,3.25163793 43.6766379,2.64568966 C42.7207759,2.10801724 41.8986207,1.83775862 41.2101724,1.83775862 C41.1817241,1.83775862 41.1532759,1.84344828 41.1248276,1.84344828 C40.8062069,1.85767241 40.5700862,1.94586207 40.4221552,2.12224138 C40.2628448,2.31 40.0608621,2.40672414 39.8105172,2.40672414 C39.5658621,2.40672414 39.3638793,2.31284483 39.2017241,2.12224138 C39.039569,1.93448276 38.7806897,1.83775862 38.4193966,1.83775862 C37.7309483,1.83775862 36.9087931,2.10801724 35.952931,2.64568966 C35.2075862,3.06672414 34.5788793,3.55887931 34.0525862,4.125 L34.0525862,4.13353448 C33.842069,4.34974138 33.6315517,4.61431034 33.4181897,4.92439655 C33.3612931,5.0012069 33.3356897,5.08655172 33.3356897,5.17474138 C33.3356897,5.25155172 33.3641379,5.37387931 33.4238793,5.54172414 C33.4836207,5.70956897 33.512069,5.84043103 33.512069,5.94284483 C33.512069,6.11922414 33.4381034,6.29275862 33.2901724,6.45491379 C33.1422414,6.61991379 32.9857759,6.69956897 32.8207759,6.69956897 C32.7638793,6.69956897 32.6842241,6.68818966 32.5732759,6.66543103 C32.4651724,6.64267241 32.3798276,6.6312931 32.3200862,6.6312931 C32.1465517,6.6312931 31.9815517,6.70241379 31.8193966,6.8475 C31.3471552,7.27422414 30.8948276,7.90577586 30.459569,8.73931034 C29.9873276,9.65534483 29.7512069,10.4518966 29.7512069,11.1232759 C29.7512069,11.5016379 29.8507759,11.8117241 30.0499138,12.0563793 C30.2490517,12.3010345 30.3486207,12.5343103 30.3486207,12.7562069 C30.3486207,13.017931 30.177931,13.2910345 29.8393966,13.5812069 C28.9518103,14.3322414 28.5051724,15.410431 28.5051724,16.8157759 C28.5051724,18.1386207 28.9802586,19.0973276 29.930431,19.6918966 C30.2462069,19.8910345 30.9175862,20.1214655 31.9388793,20.3831897 L37.5147414,20.3831897 C38.0325,20.3831897 38.2885345,20.6306897 38.2885345,21.1256897 L38.2885345,24.6675 L0.0739655172,24.6618103 Z" id="Path" fill="#1A1A1A"></path>
        </g>
    </g>
</svg>