<?xml version="1.0" encoding="UTF-8"?>
<svg width="150px" height="33px" viewBox="0 0 150 33" version="1.1" xmlns="http://www.w3.org/2000/svg" xmlns:xlink="http://www.w3.org/1999/xlink">
    <!-- Generator: Sketch 60.1 (88133) - https://sketch.com -->
    <title>MOL_CEZ_Black</title>
    <desc>Created with Sketch.</desc>
    <g id="Page-1" stroke="none" stroke-width="1" fill="none" fill-rule="evenodd">
        <g id="MOL_CEZ_Black" fill="#191A1A">
            <g id="Group" transform="translate(0.423729, 0.000000)" fill-rule="nonzero">
                <path d="M5.29661017,4.18644068 C5.27118644,4.49152542 5.19915254,4.77118644 5.08474576,5.02966102 C4.97033898,5.28813559 4.81355932,5.51271186 4.61016949,5.70338983 C4.41101695,5.8940678 4.16525424,6.04237288 3.87288136,6.14830508 C3.58050847,6.25423729 3.24576271,6.30932203 2.86016949,6.30932203 C2.4279661,6.30932203 2.04661017,6.23728814 1.72033898,6.09322034 C1.38983051,5.94915254 1.11864407,5.74576271 0.894067797,5.48305085 C0.673728814,5.22033898 0.504237288,4.90677966 0.394067797,4.53389831 C0.283898305,4.16101695 0.224576271,3.75423729 0.224576271,3.30508475 C0.224576271,2.83898305 0.283898305,2.42372881 0.406779661,2.05508475 C0.529661017,1.68644068 0.707627119,1.37288136 0.936440678,1.11016949 C1.16525424,0.847457627 1.44491525,0.648305085 1.77118644,0.508474576 C2.09745763,0.368644068 2.46610169,0.300847458 2.87711864,0.300847458 C3.24152542,0.300847458 3.55508475,0.347457627 3.82627119,0.436440678 C4.09745763,0.525423729 4.3220339,0.656779661 4.50847458,0.830508475 C4.69067797,1 4.83898305,1.20762712 4.95338983,1.44915254 C5.06355932,1.69067797 5.14830508,1.95762712 5.20338983,2.25847458 L4.01694915,2.41101695 C3.95762712,2.07627119 3.84322034,1.80932203 3.6779661,1.61864407 C3.50847458,1.4279661 3.24576271,1.33050847 2.88135593,1.33050847 C2.42372881,1.33050847 2.0720339,1.50423729 1.83474576,1.84745763 C1.59745763,2.19067797 1.47881356,2.6779661 1.47881356,3.30932203 C1.47881356,3.94491525 1.6059322,4.43220339 1.86016949,4.77542373 C2.11440678,5.11864407 2.45338983,5.28813559 2.88135593,5.28813559 C3.25,5.28813559 3.52118644,5.19491525 3.69491525,5.00423729 C3.86864407,4.81355932 3.97457627,4.54237288 4.02118644,4.19067797 L5.29661017,4.19067797 L5.29661017,4.18644068 Z" id="Path"></path>
                <path d="M7.72457627,0.444915254 L9.75,0.444915254 C10.1991525,0.444915254 10.5677966,0.495762712 10.8601695,0.601694915 C11.1525424,0.707627119 11.3813559,0.843220339 11.5466102,1.00847458 C11.7118644,1.1779661 11.8262712,1.36440678 11.8898305,1.56779661 C11.9533898,1.77542373 11.9872881,1.97457627 11.9872881,2.17372881 C11.9872881,2.54237288 11.9194915,2.85169492 11.7881356,3.10169492 C11.6525424,3.35169492 11.4322034,3.56355932 11.1144068,3.73305085 L12.2754237,6.16101695 L10.9872881,6.16101695 L10.0254237,4.01271186 L8.90254237,4.01271186 L8.90254237,6.16101695 L7.72457627,6.16101695 L7.72457627,0.444915254 L7.72457627,0.444915254 Z M9.83050847,3.02542373 C10.0169492,3.02542373 10.1737288,3.00423729 10.2966102,2.96610169 C10.4194915,2.9279661 10.5169492,2.86864407 10.5889831,2.79661017 C10.6610169,2.72457627 10.7118644,2.63559322 10.7372881,2.53813559 C10.7627119,2.43644068 10.7754237,2.32627119 10.7754237,2.20338983 C10.7754237,2.10169492 10.7584746,2.00423729 10.7288136,1.91101695 C10.6949153,1.81779661 10.6398305,1.73305085 10.5635593,1.66101695 C10.4872881,1.58898305 10.3813559,1.53389831 10.2415254,1.49152542 C10.1059322,1.45338983 9.93220339,1.43220339 9.72457627,1.43220339 L8.89830508,1.43220339 L8.89830508,3.02542373 L9.83050847,3.02542373 L9.83050847,3.02542373 Z" id="Shape"></path>
                <polygon id="Path" points="14.559322 0.444915254 18.4618644 0.444915254 18.4618644 1.46186441 15.7542373 1.46186441 15.7542373 2.71186441 18.3008475 2.71186441 18.3008475 3.73728814 15.7542373 3.73728814 15.7542373 5.14830508 18.6313559 5.14830508 18.5127119 6.16525424 14.5635593 6.16525424 14.5635593 0.444915254"></polygon>
                <path d="M22.8008475,0.444915254 L23.9364407,0.444915254 L26.0847458,6.16525424 L24.8050847,6.16525424 L24.3474576,4.84322034 L22.3432203,4.84322034 L21.8855932,6.16525424 L20.6525424,6.16525424 L22.8008475,0.444915254 Z M24.0338983,3.8559322 L23.3389831,1.80508475 L22.6483051,3.8559322 L24.0338983,3.8559322 Z" id="Shape"></path>
                <path d="M28.8898305,1.47881356 L27.1694915,1.47881356 L27.1694915,0.444915254 L31.8135593,0.444915254 L31.8135593,1.47881356 L30.0932203,1.47881356 L30.0932203,6.16525424 L28.8898305,6.16525424 C28.8898305,6.16525424 28.8898305,1.47881356 28.8898305,1.47881356 Z" id="Path"></path>
                <polygon id="Path" points="34.1610169 0.444915254 35.3559322 0.444915254 35.3559322 6.16525424 34.1610169 6.16525424"></polygon>
                <polygon id="Path" points="37.6186441 0.444915254 38.9491525 0.444915254 40.3347458 4.49152542 41.7584746 0.444915254 43.0381356 0.444915254 40.8898305 6.16525424 39.7584746 6.16525424"></polygon>
                <polygon id="Path" points="45.309322 0.444915254 49.2118644 0.444915254 49.2118644 1.46186441 46.5042373 1.46186441 46.5042373 2.71186441 49.0508475 2.71186441 49.0508475 3.73728814 46.5042373 3.73728814 46.5042373 5.14830508 49.3813559 5.14830508 49.2627119 6.16525424 45.3135593 6.16525424 45.3135593 0.444915254"></polygon>
                <polygon id="Path" points="55.1398305 0.444915254 59.0423729 0.444915254 59.0423729 1.46186441 56.3347458 1.46186441 56.3347458 2.71186441 58.8813559 2.71186441 58.8813559 3.73728814 56.3347458 3.73728814 56.3347458 5.14830508 59.2118644 5.14830508 59.0932203 6.16525424 55.1440678 6.16525424 55.1440678 0.444915254"></polygon>
                <polygon id="Path" points="61.6567797 0.444915254 62.7288136 0.444915254 65.0847458 4.19491525 65.0847458 0.444915254 66.2457627 0.444915254 66.2457627 6.16525424 65.1822034 6.16525424 62.8177966 2.44915254 62.8177966 6.16525424 61.6567797 6.16525424"></polygon>
                <polygon id="Path" points="70.3177966 1.47881356 68.5974576 1.47881356 68.5974576 0.444915254 73.2415254 0.444915254 73.2415254 1.47881356 71.5211864 1.47881356 71.5211864 6.16525424 70.3177966 6.16525424"></polygon>
                <polygon id="Path" points="75.5889831 0.444915254 79.4915254 0.444915254 79.4915254 1.46186441 76.7838983 1.46186441 76.7838983 2.71186441 79.3305085 2.71186441 79.3305085 3.73728814 76.7838983 3.73728814 76.7838983 5.14830508 79.6610169 5.14830508 79.5423729 6.16525424 75.5932203 6.16525424"></polygon>
                <path d="M82.1101695,0.444915254 L84.1355932,0.444915254 C84.5847458,0.444915254 84.9533898,0.495762712 85.2457627,0.601694915 C85.5381356,0.707627119 85.7669492,0.843220339 85.9322034,1.00847458 C86.0974576,1.1779661 86.2118644,1.36440678 86.2754237,1.56779661 C86.3389831,1.77542373 86.3728814,1.97457627 86.3728814,2.17372881 C86.3728814,2.54237288 86.3050847,2.85169492 86.1737288,3.10169492 C86.0381356,3.35169492 85.8177966,3.56355932 85.5,3.73305085 L86.6610169,6.16101695 L85.3728814,6.16101695 L84.4110169,4.01271186 L83.2881356,4.01271186 L83.2881356,6.16101695 L82.1101695,6.16101695 L82.1101695,0.444915254 Z M84.2161017,3.02542373 C84.4025424,3.02542373 84.559322,3.00423729 84.6822034,2.96610169 C84.8050847,2.9279661 84.9025424,2.86864407 84.9745763,2.79661017 C85.0466102,2.72457627 85.0974576,2.63559322 85.1228814,2.53813559 C85.1483051,2.43644068 85.1610169,2.32627119 85.1610169,2.20338983 C85.1610169,2.10169492 85.1440678,2.00423729 85.1144068,1.91101695 C85.0805085,1.81779661 85.0254237,1.73305085 84.9491525,1.66101695 C84.8728814,1.58898305 84.7669492,1.53389831 84.6271186,1.49152542 C84.4915254,1.45338983 84.3177966,1.43220339 84.1101695,1.43220339 L83.2838983,1.43220339 L83.2838983,3.02542373 L84.2161017,3.02542373 L84.2161017,3.02542373 Z" id="Shape"></path>
                <path d="M88.940678,0.444915254 L90.9830508,0.444915254 C91.4194915,0.444915254 91.7838983,0.495762712 92.0677966,0.593220339 C92.3516949,0.690677966 92.5805085,0.822033898 92.75,0.987288136 C92.9194915,1.14830508 93.0338983,1.33898305 93.1016949,1.55508475 C93.1694915,1.77118644 93.2033898,1.99576271 93.2033898,2.23305085 C93.2033898,2.48305085 93.1694915,2.72457627 93.1016949,2.95338983 C93.0338983,3.18220339 92.9194915,3.38559322 92.75,3.55932203 C92.5805085,3.73305085 92.3559322,3.86864407 92.0762712,3.97033898 C91.7966102,4.0720339 91.440678,4.12288136 91.0169492,4.12288136 L90.1186441,4.12288136 L90.1186441,6.16525424 L88.940678,6.16525424 L88.940678,0.444915254 L88.940678,0.444915254 Z M90.9788136,3.12711864 C91.1864407,3.12711864 91.3601695,3.1059322 91.4957627,3.06355932 C91.6313559,3.02118644 91.7415254,2.96186441 91.8220339,2.88559322 C91.9025424,2.80932203 91.9576271,2.72033898 91.9872881,2.61016949 C92.0169492,2.5 92.029661,2.38135593 92.029661,2.25423729 C92.029661,2.12288136 92.0127119,2.00423729 91.9830508,1.90254237 C91.9533898,1.80084746 91.8940678,1.71610169 91.8135593,1.6440678 C91.7330508,1.5720339 91.6271186,1.52118644 91.4872881,1.48305085 C91.3516949,1.44491525 91.1779661,1.4279661 90.970339,1.4279661 L90.1228814,1.4279661 L90.1228814,3.12711864 L90.9788136,3.12711864 L90.9788136,3.12711864 Z" id="Shape"></path>
                <path d="M95.6694915,0.444915254 L97.6949153,0.444915254 C98.1440678,0.444915254 98.5127119,0.495762712 98.8050847,0.601694915 C99.0974576,0.707627119 99.3262712,0.843220339 99.4915254,1.00847458 C99.6567797,1.1779661 99.7711864,1.36440678 99.8347458,1.56779661 C99.8983051,1.77542373 99.9322034,1.97457627 99.9322034,2.17372881 C99.9322034,2.54237288 99.8644068,2.85169492 99.7330508,3.10169492 C99.5974576,3.35169492 99.3771186,3.56355932 99.059322,3.73305085 L100.220339,6.16101695 L98.9322034,6.16101695 L97.970339,4.01271186 L96.8474576,4.01271186 L96.8474576,6.16101695 L95.6694915,6.16101695 L95.6694915,0.444915254 L95.6694915,0.444915254 Z M97.7754237,3.02542373 C97.9618644,3.02542373 98.1186441,3.00423729 98.2415254,2.96610169 C98.3644068,2.9279661 98.4618644,2.86864407 98.5338983,2.79661017 C98.6059322,2.72457627 98.6567797,2.63559322 98.6822034,2.53813559 C98.7076271,2.43644068 98.720339,2.32627119 98.720339,2.20338983 C98.720339,2.10169492 98.7033898,2.00423729 98.6737288,1.91101695 C98.6398305,1.81779661 98.5847458,1.73305085 98.5084746,1.66101695 C98.4322034,1.58898305 98.3262712,1.53389831 98.1864407,1.49152542 C98.0508475,1.45338983 97.8771186,1.43220339 97.6694915,1.43220339 L96.8432203,1.43220339 L96.8432203,3.02542373 L97.7754237,3.02542373 L97.7754237,3.02542373 Z" id="Shape"></path>
                <polygon id="Path" points="102.504237 0.444915254 103.699153 0.444915254 103.699153 6.16525424 102.504237 6.16525424"></polygon>
                <path d="M107.317797,4.29661017 C107.34322,4.64830508 107.457627,4.90677966 107.65678,5.06779661 C107.855932,5.22881356 108.152542,5.30932203 108.542373,5.30932203 C108.728814,5.30932203 108.885593,5.28813559 109.016949,5.25 C109.144068,5.21186441 109.25,5.15677966 109.330508,5.08898305 C109.411017,5.02118644 109.466102,4.94491525 109.504237,4.85169492 C109.542373,4.75847458 109.555085,4.66101695 109.555085,4.55508475 C109.555085,4.40677966 109.5,4.26694915 109.385593,4.13559322 C109.275424,4.00423729 109.067797,3.91101695 108.766949,3.85169492 L108.021186,3.71610169 C107.728814,3.66101695 107.470339,3.59322034 107.245763,3.50847458 C107.021186,3.42372881 106.834746,3.31355932 106.682203,3.1779661 C106.529661,3.04237288 106.415254,2.87288136 106.334746,2.6779661 C106.254237,2.48305085 106.216102,2.24576271 106.216102,1.97457627 C106.216102,1.70338983 106.271186,1.46186441 106.381356,1.25423729 C106.491525,1.04661017 106.644068,0.872881356 106.838983,0.733050847 C107.033898,0.593220339 107.266949,0.487288136 107.538136,0.415254237 C107.809322,0.343220339 108.110169,0.309322034 108.436441,0.309322034 C108.851695,0.309322034 109.199153,0.355932203 109.478814,0.453389831 C109.758475,0.550847458 109.978814,0.677966102 110.152542,0.834745763 C110.322034,0.991525424 110.449153,1.17372881 110.533898,1.38559322 C110.614407,1.59322034 110.669492,1.80932203 110.699153,2.03389831 L109.567797,2.1779661 C109.508475,1.86440678 109.394068,1.63559322 109.228814,1.49576271 C109.059322,1.3559322 108.805085,1.28813559 108.461864,1.28813559 C108.258475,1.28813559 108.09322,1.30508475 107.961864,1.33898305 C107.830508,1.37288136 107.724576,1.41949153 107.644068,1.47457627 C107.563559,1.52966102 107.508475,1.59745763 107.474576,1.66949153 C107.440678,1.74576271 107.427966,1.8220339 107.427966,1.90254237 C107.427966,2.11440678 107.487288,2.27542373 107.610169,2.38135593 C107.733051,2.48728814 107.936441,2.5720339 108.224576,2.63135593 L109.008475,2.78389831 C109.627119,2.90677966 110.080508,3.1059322 110.368644,3.38135593 C110.65678,3.65677966 110.800847,4.05508475 110.800847,4.5720339 C110.800847,4.8220339 110.754237,5.05508475 110.661017,5.26694915 C110.567797,5.47881356 110.427966,5.66101695 110.245763,5.81779661 C110.063559,5.97457627 109.830508,6.09745763 109.555085,6.18644068 C109.275424,6.27542373 108.95339,6.31779661 108.576271,6.31779661 C107.79661,6.31779661 107.199153,6.15254237 106.783898,5.81779661 C106.368644,5.48305085 106.148305,4.97881356 106.114407,4.30932203 L107.317797,4.30932203 L107.317797,4.29661017 L107.317797,4.29661017 Z" id="Path"></path>
                <polygon id="Path" points="113.237288 0.444915254 117.139831 0.444915254 117.139831 1.46186441 114.432203 1.46186441 114.432203 2.71186441 116.978814 2.71186441 116.978814 3.73728814 114.432203 3.73728814 114.432203 5.14830508 117.309322 5.14830508 117.190678 6.16525424 113.241525 6.16525424"></polygon>
                <polygon id="Path" points="122.665254 5.29237288 125.525424 1.47033898 122.720339 1.47033898 122.720339 0.444915254 126.949153 0.444915254 126.949153 1.32627119 124.097458 5.13983051 127.076271 5.13983051 126.957627 6.16525424 122.665254 6.16525424"></polygon>
                <path d="M131.79661,6.30932203 C131.368644,6.30932203 130.987288,6.24152542 130.652542,6.10169492 C130.317797,5.96186441 130.029661,5.76271186 129.79661,5.5 C129.559322,5.23728814 129.381356,4.92372881 129.254237,4.55508475 C129.127119,4.18644068 129.067797,3.77118644 129.067797,3.30508475 C129.067797,2.83898305 129.131356,2.42372881 129.254237,2.05508475 C129.381356,1.68644068 129.559322,1.37288136 129.79661,1.11016949 C130.033898,0.847457627 130.322034,0.648305085 130.65678,0.508474576 C130.991525,0.368644068 131.372881,0.300847458 131.79661,0.300847458 C132.224576,0.300847458 132.605932,0.368644068 132.940678,0.508474576 C133.275424,0.648305085 133.563559,0.847457627 133.792373,1.11016949 C134.025424,1.37288136 134.20339,1.68644068 134.326271,2.05508475 C134.449153,2.42372881 134.508475,2.83898305 134.508475,3.30508475 C134.508475,3.77118644 134.449153,4.18644068 134.326271,4.55508475 C134.20339,4.92372881 134.029661,5.23728814 133.79661,5.5 C133.563559,5.76271186 133.279661,5.96186441 132.944915,6.10169492 C132.614407,6.24152542 132.228814,6.30932203 131.79661,6.30932203 Z M131.788136,5.28389831 C132.288136,5.28389831 132.665254,5.11440678 132.911017,4.77118644 C133.15678,4.4279661 133.279661,3.94067797 133.279661,3.30508475 C133.279661,2.67372881 133.15678,2.18644068 132.911017,1.84322034 C132.665254,1.5 132.292373,1.32627119 131.788136,1.32627119 C131.288136,1.32627119 130.911017,1.5 130.665254,1.84322034 C130.419492,2.18644068 130.29661,2.67372881 130.29661,3.30508475 C130.29661,3.94067797 130.419492,4.4279661 130.665254,4.77118644 C130.915254,5.11440678 131.288136,5.28389831 131.788136,5.28389831 Z" id="Shape"></path>
                <polygon id="Path" points="137.101695 0.444915254 138.173729 0.444915254 140.529661 4.19491525 140.529661 0.444915254 141.690678 0.444915254 141.690678 6.16525424 140.627119 6.16525424 138.262712 2.44915254 138.262712 6.16525424 137.101695 6.16525424"></polygon>
                <polygon id="Path" points="144.461864 0.444915254 148.364407 0.444915254 148.364407 1.46186441 145.65678 1.46186441 145.65678 2.71186441 148.20339 2.71186441 148.20339 3.73728814 145.65678 3.73728814 145.65678 5.14830508 148.533898 5.14830508 148.415254 6.16525424 144.466102 6.16525424"></polygon>
            </g>
            <g id="Group" transform="translate(0.423729, 21.186441)">
                <polygon id="Path" fill-rule="nonzero" points="11.2457627 0.516949153 8.76694915 0.516949153 5.71186441 4.67372881 2.59322034 0.516949153 0.199152542 0.516949153 0.199152542 11.4661017 2.74152542 11.4661017 2.74152542 4.67372881 5.71186441 8.51271186 8.76694915 4.67372881 8.76694915 11.4661017 11.2457627 11.4661017"></polygon>
                <path d="M19.5847458,9.31779661 L20.3389831,11.4661017 L23.1483051,11.4661017 L18.9915254,0.516949153 L16.3813559,0.516949153 L12.3432203,11.4661017 L15.1355932,11.4661017 L15.8389831,9.31779661 L19.5847458,9.31779661 L19.5847458,9.31779661 Z M18.809322,7.09745763 L16.5805085,7.09745763 L17.6949153,3.52118644 L18.809322,7.09745763 L18.809322,7.09745763 Z" id="Shape"></path>
                <polygon id="Path" fill-rule="nonzero" points="31.5677966 0.516949153 28.6144068 0.516949153 26.5127119 4.6059322 24.3940678 0.516949153 21.4576271 0.516949153 25.2330508 7 25.2330508 11.4661017 27.8389831 11.4661017 27.8389831 7"></polygon>
                <path d="M42.8855932,6.01271186 C42.8855932,2.79237288 40.3220339,0.300847458 37.0254237,0.300847458 C33.7415254,0.300847458 31.2161017,2.76271186 31.2161017,5.96610169 C31.2161017,9.19915254 33.7627119,11.6991525 37.0762712,11.6991525 C40.3728814,11.6991525 42.8855932,9.23728814 42.8855932,6.01271186 L42.8855932,6.01271186 Z M40.3432203,5.98305085 C40.3432203,7.88983051 38.8983051,9.38559322 37.0762712,9.38559322 C35.2372881,9.38559322 33.7457627,7.86016949 33.7457627,5.94915254 C33.7457627,4.08474576 35.190678,2.61863477 37.0466102,2.61863477 C38.9279661,2.61440678 40.3432203,4.05932203 40.3432203,5.98305085 L40.3432203,5.98305085 Z" id="Shape"></path>
                <path d="M50.0720339,6.75423729 C51.2881356,6.05084746 51.8813559,5.09322034 51.8813559,3.85169492 C51.8813559,2.83050847 51.4194915,1.8940678 50.6483051,1.3220339 C49.7457627,0.68220339 49.1016949,0.521186441 47.3008475,0.521186441 L44.5932203,0.521186441 L44.5932203,11.470339 L47.1355932,11.470339 L47.1355932,7.33474576 L47.6271186,7.33474576 L50.3855932,11.470339 L53.2627119,11.470339 L50.0720339,6.75423729 L50.0720339,6.75423729 Z M47.1355932,2.56779661 L47.6271186,2.56779661 C48.3177966,2.56779661 48.5338983,2.60169492 48.8305085,2.79661017 C49.190678,3.01271186 49.3855932,3.38983051 49.3855932,3.83050847 C49.3855932,4.73305085 48.7966102,5.14830508 47.4830508,5.14830508 L47.1355932,5.14830508 L47.1355932,2.56779661 L47.1355932,2.56779661 Z" id="Shape"></path>
                <path d="M68.940678,6.01271186 C68.940678,2.79237288 66.3771186,0.300847458 63.0805085,0.300847458 C59.7923729,0.300847458 57.2627119,2.76271186 57.2627119,5.96610169 C57.2627119,9.19915254 59.8050847,11.6991525 63.1271186,11.6991525 C66.4279661,11.6991525 68.940678,9.23728814 68.940678,6.01271186 L68.940678,6.01271186 Z M66.3940678,5.98305085 C66.3940678,7.88983051 64.9449153,9.38559322 63.1271186,9.38559322 C61.2881356,9.38559322 59.7923729,7.86016949 59.7923729,5.94915254 C59.7923729,4.08474576 61.2372881,2.61863477 63.0932203,2.61863477 C64.9830508,2.61440678 66.3940678,4.05932203 66.3940678,5.98305085 L66.3940678,5.98305085 Z" id="Shape"></path>
                <polygon id="Path" fill-rule="nonzero" points="77.5381356 0.516949153 70.6228814 0.516949153 70.6228814 11.4661017 73.220339 11.4661017 73.220339 6.75423729 76.6567797 6.75423729 76.6567797 4.5720339 73.220339 4.5720339 73.220339 2.69915254 77.5381356 2.69915254"></polygon>
                <polygon id="Path" fill-rule="nonzero" points="85.3389831 0.516949153 82.7627119 0.516949153 82.7627119 11.4661017 89.5466102 11.4661017 89.5466102 9.15677966 85.3389831 9.15677966"></polygon>
                <path d="M101.423729,6.01271186 C101.423729,2.79237288 98.8601695,0.300847458 95.5635593,0.300847458 C92.279661,0.300847458 89.75,2.76271186 89.75,5.96610169 C89.75,9.19915254 92.2923729,11.6991525 95.6101695,11.6991525 C98.9110169,11.6991525 101.423729,9.23728814 101.423729,6.01271186 L101.423729,6.01271186 Z M98.8771186,5.98305085 C98.8771186,7.88983051 97.4322034,9.38559322 95.6101695,9.38559322 C93.7711864,9.38559322 92.279661,7.86016949 92.279661,5.94915254 C92.279661,4.08474576 93.7245763,2.61863477 95.5805085,2.61863477 C97.4661017,2.61440678 98.8771186,4.05932203 98.8771186,5.98305085 L98.8771186,5.98305085 Z" id="Shape"></path>
                <polygon id="Path" fill-rule="nonzero" points="113.059322 0.516949153 110.487288 0.516949153 110.487288 7.21610169 105.34322 0.516949153 103.012712 0.516949153 103.012712 11.4661017 105.588983 11.4661017 105.588983 4.85169492 110.728814 11.4661017 113.059322 11.4661017"></polygon>
                <path d="M115.186441,0.516949153 L115.186441,11.4661017 C115.944915,11.4830508 116.677966,11.4830508 117.419492,11.4830508 C119.40678,11.4830508 120.04661,11.4533898 120.817797,11.2711864 C121.70339,11.0932203 122.525424,10.6313559 123.216102,9.96186441 C124.25,8.95762712 124.838983,7.51271186 124.838983,5.94915254 C124.838983,4.18220339 124.04661,2.58474576 122.720339,1.60169492 C121.584746,0.779661017 120.588983,0.521186441 118.45339,0.521186441 L115.186441,0.521186441 L115.186441,0.516949153 Z M117.762712,2.64830508 C118.008475,2.62711864 118.173729,2.62711864 118.283898,2.62711864 C119.809322,2.62711864 120.648305,2.87711864 121.355932,3.51694915 C121.995763,4.08898305 122.338983,4.93220339 122.338983,5.96186441 C122.338983,7.63559322 121.440678,8.8559322 119.957627,9.18220339 C119.516949,9.27966102 119.275424,9.29661017 118.487288,9.29661017 L117.762712,9.29661017 L117.762712,2.64830508 L117.762712,2.64830508 Z" id="Shape"></path>
                <path d="M137.716102,6.01271186 C137.716102,2.79237288 135.161017,0.300847458 131.860169,0.300847458 C128.576271,0.300847458 126.050847,2.76271186 126.050847,5.96610169 C126.050847,9.19915254 128.59322,11.6991525 131.90678,11.6991525 C135.207627,11.6991525 137.716102,9.23728814 137.716102,6.01271186 L137.716102,6.01271186 Z M135.173729,5.98305085 C135.173729,7.88983051 133.728814,9.38559322 131.90678,9.38559322 C130.067797,9.38559322 128.576271,7.86016949 128.576271,5.94915254 C128.576271,4.08474576 130.016949,2.61863477 131.872881,2.61863477 C133.766949,2.61440678 135.173729,4.05932203 135.173729,5.98305085 L135.173729,5.98305085 Z" id="Shape"></path>
                <polygon id="Path" fill-rule="nonzero" points="149.355932 0.516949153 146.775424 0.516949153 146.775424 7.21610169 141.639831 0.516949153 139.305085 0.516949153 139.305085 11.4661017 141.885593 11.4661017 141.885593 4.85169492 147.025424 11.4661017 149.355932 11.4661017"></polygon>
            </g>
            <rect id="Rectangle" fill-rule="nonzero" x="0.0508474576" y="13.8983051" width="149.449153" height="1"></rect>
        </g>
    </g>
</svg>